<svg xmlns="http://www.w3.org/2000/svg" xmlns:xlink="http://www.w3.org/1999/xlink" viewBox="0 0 232 56"><defs><style>.cls-1{fill:none;}.cls-2{clip-path:url(#clip-path);}.cls-3{fill:url(#linear-gradient);}.cls-4{clip-path:url(#clip-path-2);}.cls-5{fill:url(#linear-gradient-2);}.cls-6{clip-path:url(#clip-path-3);}.cls-7{fill:url(#linear-gradient-3);}.cls-8{clip-path:url(#clip-path-4);}.cls-9{fill:url(#linear-gradient-4);}.cls-10{clip-path:url(#clip-path-5);}.cls-11{fill:url(#linear-gradient-5);}.cls-12{clip-path:url(#clip-path-6);}.cls-13{fill:url(#linear-gradient-6);}.cls-14{clip-path:url(#clip-path-7);}.cls-15{fill:url(#linear-gradient-7);}.cls-16{clip-path:url(#clip-path-8);}.cls-17{fill:url(#linear-gradient-8);}</style><clipPath id="clip-path"><path class="cls-1" d="M143.33,37.14H131.77V16.53a2.43,2.43,0,0,0-4.87,0v23A2.43,2.43,0,0,0,129.34,42h14a2.43,2.43,0,0,0,0-4.86"/></clipPath><linearGradient id="linear-gradient" x1="7747.09" y1="8511.68" x2="7747.71" y2="8511.68" gradientTransform="matrix(339.96, 3.95, 3.95, -339.96, -2667350.32, 2863048.33)" gradientUnits="userSpaceOnUse"><stop offset="0" stop-color="#476fbd"/><stop offset="0.22" stop-color="#476fbd"/><stop offset="0.39" stop-color="#3480b8"/><stop offset="0.72" stop-color="#149db0"/><stop offset="0.91" stop-color="#08a8ad"/><stop offset="1" stop-color="#08a8ad"/></linearGradient><clipPath id="clip-path-2"><path class="cls-1" d="M165.07,14.62a2.44,2.44,0,0,0-3.42.4l-9.12,11.56a2.44,2.44,0,0,0-.52,1.51V39.37a2.43,2.43,0,1,0,4.86,0V28.93l8.6-10.9a2.44,2.44,0,0,0-.4-3.42"/></clipPath><linearGradient id="linear-gradient-2" x1="7747.1" y1="8511.68" x2="7747.72" y2="8511.68" gradientTransform="matrix(339.98, 3.95, 3.95, -339.98, -2667490.82, 2863197.33)" xlink:href="#linear-gradient"/><clipPath id="clip-path-3"><path class="cls-1" d="M152,20.81,147.42,15a2.43,2.43,0,1,0-3.82,3l4.57,5.79a2.44,2.44,0,0,0,3.41.4,2.44,2.44,0,0,0,.41-3.42"/></clipPath><linearGradient id="linear-gradient-3" x1="7747.1" y1="8511.66" x2="7747.71" y2="8511.66" gradientTransform="matrix(339.99, 3.95, 3.95, -339.99, -2667570.82, 2863268.83)" xlink:href="#linear-gradient"/><clipPath id="clip-path-4"><path class="cls-1" d="M179.75,24.91c-5.46-.83-6-2.05-6-3.36,0-2.22,3-2.89,5.54-2.89a8.46,8.46,0,0,1,6.08,2.74,2.59,2.59,0,0,0,3.56.3,2.43,2.43,0,0,0,.29-3.43A13.5,13.5,0,0,0,179.31,14c-9.66,0-10.41,5.78-10.41,7.55,0,6.77,7.26,7.95,10,8.36,5.21.78,6.83,1.86,6.83,3.9,0,2.72-3.3,3.52-6.34,3.52a9,9,0,0,1-7-3.58,2.85,2.85,0,0,0-3.62-.3,2.43,2.43,0,0,0-.32,3.43,14.31,14.31,0,0,0,10.89,5c7.28,0,11.62-3.12,11.62-8.35,0-6-6.7-8-11.18-8.65"/></clipPath><linearGradient id="linear-gradient-4" x1="7747.09" y1="8511.68" x2="7747.71" y2="8511.68" gradientTransform="matrix(339.96, 3.95, 3.95, -339.96, -2667309.32, 2863003.33)" xlink:href="#linear-gradient"/><clipPath id="clip-path-5"><path class="cls-1" d="M23.14,14.1H18.52a2.43,2.43,0,0,0-2.43,2.43v14.8a2.43,2.43,0,1,0,4.86,0V19h2.2a9.09,9.09,0,0,1,0,18.18H18.62a2.43,2.43,0,1,0,0,4.86h4.52a14,14,0,1,0,0-27.9"/></clipPath><linearGradient id="linear-gradient-5" x1="7747.09" y1="8511.68" x2="7747.71" y2="8511.68" gradientTransform="matrix(339.98, 3.95, 3.95, -339.98, -2667460.82, 2863167.83)" xlink:href="#linear-gradient"/><clipPath id="clip-path-6"><path class="cls-1" d="M116.59,22.33a2.43,2.43,0,0,0-2.44,2.43V37.14H112A9.09,9.09,0,0,1,112,19h4.52a2.43,2.43,0,1,0,0-4.86H112A14,14,0,0,0,112,42h4.63A2.43,2.43,0,0,0,119,39.57V24.76a2.43,2.43,0,0,0-2.43-2.43"/></clipPath><linearGradient id="linear-gradient-6" x1="7747.1" y1="8511.68" x2="7747.71" y2="8511.68" gradientTransform="matrix(339.97, 3.95, 3.95, -339.97, -2667418.32, 2863120.33)" xlink:href="#linear-gradient"/><clipPath id="clip-path-7"><path class="cls-1" d="M85.32,41.94h0c-2.85,0-6.24-1.73-10.08-5.14C72.82,34.64,70,31.69,70,28,70,24.17,73,21.16,75.51,19c3.83-3.27,7-4.86,9.81-4.86a7.88,7.88,0,0,1,7.53,4.73C93.92,21.05,94.41,24,94.41,28c0,9.23-3.06,13.91-9.09,13.91m0-23.09c-.88,0-2.94.48-6.72,3.72-2.58,2.21-3.84,4-3.84,5.45s1.16,3,3.63,5.23c2.82,2.5,5.34,3.94,6.92,3.94,1.41,0,4.34,0,4.34-9.17,0-3.27-.36-5.61-1.09-7.14a3.19,3.19,0,0,0-3.26-2"/></clipPath><linearGradient id="linear-gradient-7" x1="7747.09" y1="8511.68" x2="7747.71" y2="8511.68" gradientTransform="matrix(339.96, 3.95, 3.95, -339.96, -2667328.32, 2863025.33)" xlink:href="#linear-gradient"/><clipPath id="clip-path-8"><path class="cls-1" d="M51.42,41.94h0c-6,0-9.09-4.68-9.09-13.91,0-4.06.49-7,1.55-9.19a7.89,7.89,0,0,1,7.54-4.73c2.77,0,6,1.59,9.81,4.86,2.56,2.19,5.49,5.2,5.49,9.06,0,3.66-2.79,6.61-5.23,8.77-3.83,3.41-7.22,5.14-10.07,5.14m0-23.09a3.18,3.18,0,0,0-3.25,2c-.74,1.54-1.09,3.87-1.09,7.14,0,9.17,2.93,9.17,4.35,9.17,1.59,0,4.1-1.44,6.92-3.94C60.83,31.05,62,29.39,62,28s-1.25-3.24-3.83-5.45c-3.79-3.24-5.84-3.72-6.73-3.72"/></clipPath><linearGradient id="linear-gradient-8" x1="7747.09" y1="8511.68" x2="7747.71" y2="8511.68" gradientTransform="matrix(339.95, 3.95, 3.95, -339.95, -2667266.82, 2862960.33)" xlink:href="#linear-gradient"/><symbol id="logo_full" data-name="logo_full" viewBox="0 0 232 56"><rect class="cls-1" width="232" height="56"/><g class="cls-2"><polygon class="cls-3" points="126.91 13.88 146.09 14.1 145.76 42.22 126.58 42 126.91 13.88"/></g><g class="cls-4"><polygon class="cls-5" points="152 13.62 166.62 13.79 166.29 41.97 151.68 41.8 152 13.62"/></g><g class="cls-6"><polygon class="cls-7" points="142.77 13.67 152.95 13.79 152.82 24.86 142.64 24.75 142.77 13.67"/></g><g class="cls-8"><polygon class="cls-9" points="167.56 13.73 191.26 14 190.93 42.18 167.24 41.9 167.56 13.73"/></g><g class="cls-10"><polygon class="cls-11" points="16.09 13.85 37.42 14.1 37.09 42.24 15.76 42 16.09 13.85"/></g><g class="cls-12"><polygon class="cls-13" points="98.02 13.85 119.35 14.1 119.02 42.24 97.69 42 98.02 13.85"/></g><g class="cls-14"><polygon class="cls-15" points="70.02 13.83 94.74 14.11 94.41 42.23 69.69 41.94 70.02 13.83"/></g><g class="cls-16"><polygon class="cls-17" points="42.34 13.83 67.05 14.11 66.72 42.23 42.01 41.94 42.34 13.83"/></g></symbol></defs><title>logo_full</title><g id="Layer_2" data-name="Layer 2"><g id="elements"><use width="232" height="56" xlink:href="#logo_full"/></g></g></svg>