<svg xmlns="http://www.w3.org/2000/svg" viewBox="0 0 24 24"><defs><style>.cls-1{fill:#476fbd}.cls-2{fill:#fff;opacity:.01}</style></defs><title>spiner</title><g id="main" data-name="main"><path class="cls-1" d="M23.28 7.78a3.63 3.63 0 0 0-3.47-2.17c-1.28 0-2.76.73-4.52 2.23-1.18 1-2.53 2.39-2.53 4.16s1.29 3 2.41 4c1.77 1.57 3.33 2.36 4.64 2.36C22.59 18.39 24 16.24 24 12a9.71 9.71 0 0 0-.72-4.22zm-3.47 8.43a6.09 6.09 0 0 1-3.19-1.81c-1.14-1-1.68-1.78-1.68-2.4s.58-1.49 1.77-2.5c1.75-1.5 2.69-1.71 3.1-1.71a1.47 1.47 0 0 1 1.5.93 8 8 0 0 1 .5 3.28c0 4.21-1.35 4.21-2 4.21zM8.71 7.84c-1.76-1.5-3.24-2.23-4.52-2.23A3.64 3.64 0 0 0 .71 7.78 9.73 9.73 0 0 0 0 12c0 4.24 1.41 6.38 4.19 6.38 1.32 0 2.88-.79 4.64-2.36 1.12-1 2.41-2.35 2.41-4S9.89 8.85 8.71 7.84zM7.38 14.4a6.09 6.09 0 0 1-3.19 1.81c-.65 0-2 0-2-4.21a7.89 7.89 0 0 1 .5-3.28 1.47 1.47 0 0 1 1.5-.93c.41 0 1.35.22 3.1 1.71 1.19 1 1.77 1.83 1.77 2.5s-.54 1.39-1.68 2.4z"/><circle class="cls-2" cx="12" cy="1" r="1"/><circle class="cls-2" cx="12" cy="23" r="1"/><animateTransform attributeName="transform" type="rotate" from="0 12 12" to="360 12 12" dur="1s" repeatCount="indefinite" keySplines="0.5 0.4 0.4 1" keyTimes="0;1" calcMode="spline"/></g></svg>